# xmcd
#
# Track frame offsets:
#	183
#	17673
#	38665
#	60045
#	80380
#	99698
#	113458
#	137375
#	166545
#	183478
#	196453
#	217283
#	239803
#	264950
#	290983
#
# Disc length: 4054 seconds
#
# Revision: 1
# Processed by: cddbd v1.4PL0 Copyright (c) Steve Scherf et al.
# Submitted via: audiograbber 1.81.01
#
DISCID=cb0fd40f
DTITLE=Studebaker John and The Hawks - Nothing But Fun
DYEAR=1900
DGENRE=Blues
TTITLE0=Nothin' But Fun
TTITLE1=Outside Lookin' In
TTITLE2=Shake
TTITLE3=Cruel Twist Of Fate
TTITLE4=Tell Me Why
TTITLE5=Flippin' Out
TTITLE6=She's A Rocker
TTITLE7=I've Got To Love You
TTITLE8=Whoa Yeah
TTITLE9=Circumstances
TTITLE10=You Done Me Wrong
TTITLE11=Dirty Business
TTITLE12=New Way Of Walkin'
TTITLE13=Blue Feelin'
TTITLE14=Harpomatic
EXTD=
EXTT0=
EXTT1=
EXTT2=
EXTT3=
EXTT4=
EXTT5=
EXTT6=
EXTT7=
EXTT8=
EXTT9=
EXTT10=
EXTT11=
EXTT12=
EXTT13=
EXTT14=
PLAYORDER=
